<svg xmlns="http://www.w3.org/2000/svg" width="64" height="64" viewBox="0 0 64 64" role="img" aria-labelledby="title desc">
  <title id="title">Raj Singh neural mark</title>
  <desc id="desc">A geometric neural network monogram mark.</desc>
  <defs>
    <linearGradient id="g" x1="10" y1="8" x2="54" y2="56" gradientUnits="userSpaceOnUse">
      <stop stop-color="#63e6e2"/>
      <stop offset=".48" stop-color="#ff5dd6"/>
      <stop offset="1" stop-color="#ffd166"/>
    </linearGradient>
  </defs>
  <rect x="3" y="3" width="58" height="58" rx="8" fill="#080b11" stroke="url(#g)" stroke-width="2"/>
  <path d="M17 41V21h13c5 0 8 3 8 7 0 3-2 6-5 7l8 6h-8l-7-6h-4v6h-5Zm5-11h8c2 0 3-1 3-3 0-1-1-2-3-2h-8v5Z" fill="url(#g)"/>
  <circle cx="46" cy="18" r="3" fill="#63e6e2"/>
  <circle cx="49" cy="43" r="3" fill="#ffd166"/>
  <circle cx="14" cy="50" r="2.5" fill="#ff5dd6"/>
  <path d="M46 18 35 28M38 34l11 9M22 36 14 50" stroke="url(#g)" stroke-width="1.5" stroke-linecap="round"/>
</svg>
